#!OML:ASF H:\IndianDance\Patient Classification 1\Patient 1\Session 1\dancer.ASF
:FULLY-SPECIFIED
:DEGREES
3229
root 1.05117 14.398 -1.61105 -719.813 42.7335 -6.95061
lowerback 8.82267 2.20621 -5.87722
upperback -2.05868 2.7392 5.8327
thorax -7.76493 1.80689 9.21881
lowerneck -16.2983 -11.4389 -6.37407
upperneck 21.8751 -19.2769 18.724
head 12.6676 -7.02926 4.78485
rclavicle 6.54499e-014 -2.94201e-014
rhumerus -13.2657 9.26691 -81.8796
rradius 42.1579
rwrist -59.2473
rhand -46.5373 7.35688
rfingers 7.12502
rthumb -19.2624 -21.7092
lclavicle 6.54499e-014 -2.94201e-014
lhumerus -43.854 -62.8839 86.9455
lradius 97.3993
lwrist 79.2542
lhand 26.8941 374.071
lfingers 7.12502
lthumb 50.8942 34.811
rfemur -43.5941 -25.5088 25.5076
rtibia 84.4896
rfoot -12.5944 -5.1177
rtoes 6.9182
lfemur -36.0788 16.2462 -22.8585
ltibia 59.6454
lfoot -27.0401 14.8688
ltoes 13.4538
3230
root 1.06817 14.4033 -1.5748 -719.982 43.1792 -7.15044
lowerback 8.79042 2.29022 -5.68592
upperback -2.04691 2.8511 5.56045
thorax -7.72746 1.8394 8.78067
lowerneck -16.3358 -11.3057 -6.35285
upperneck 22.0817 -19.1721 18.8893
head 12.7654 -6.94251 4.87554
rclavicle 1.14301e-014 -2.94201e-014
rhumerus -13.6387 11.6936 -82.5869
rradius 42.9431
rwrist -60.9374
rhand -46.5103 6.37326
rfingers 7.12502
rthumb -19.2365 -22.6954
lclavicle 1.14301e-014 -2.94201e-014
lhumerus -43.6172 -62.8721 86.7097
lradius 97.3761
lwrist 79.1911
lhand 26.7606 374.009
lfingers 7.12502
lthumb 50.7725 34.8166
rfemur -44.9116 -25.3822 25.8469
rtibia 84.1857
rfoot -13.1613 -5.47349
rtoes 6.77661
lfemur -35.8751 16.0346 -22.6213
ltibia 59.6388
lfoot -27.1556 14.6973
ltoes 13.2373
3231
root 1.08703 14.411 -1.53716 -720.133 43.6673 -7.38004
lowerback 8.69837 2.35303 -5.47138
upperback -2.04547 2.94026 5.29717
thorax -7.65976 1.85966 8.34637
lowerneck -16.3622 -11.1685 -6.34244
upperneck 22.2741 -19.057 19.0609
head 12.856 -6.85316 4.97356
rclavicle -5.26282e-014 7.95139e-016
rhumerus -14.0203 14.1318 -83.2473
rradius 43.8042
rwrist -62.5975
rhand -46.501 5.51268
rfingers 7.12502
rthumb -19.2275 -23.5568
lclavicle -5.26282e-014 7.95139e-016
lhumerus -43.3859 -62.8597 86.4828
lradius 97.3537
lwrist 79.139
lhand 26.6655 373.971
lfingers 7.12502
lthumb 50.6857 34.8259
rfemur -46.2236 -25.3132 26.2599
rtibia 83.6564
rfoot -13.6787 -6.01205
rtoes 6.68804
lfemur -35.7034 15.7933 -22.3788
ltibia 59.6079
lfoot -27.2605 14.5185
ltoes 13.048
3232
root 1.10652 14.3967 -1.4969 -720.294 44.169 -7.60297
lowerback 8.58945 2.41143 -5.26685
upperback -2.03345 3.02267 5.03543
thorax -7.56906 1.87649 7.92386
lowerneck -16.3933 -11.0296 -6.33598
upperneck 22.4614 -18.9375 19.2341
head 12.9458 -6.76199 5.07448
rclavicle -2.93207e-014 -3.26007e-014
rhumerus -14.4153 16.614 -83.849
rradius 44.7495
rwrist -64.2518
rhand -46.4816 4.7677
rfingers 7.12502
rthumb -19.2089 -24.3037
lclavicle -2.93207e-014 -3.26007e-014
lhumerus -43.1562 -62.8545 86.2583
lradius 97.3391
lwrist 79.1033
lhand 26.5922 373.94
lfingers 7.12502
lthumb 50.6188 34.8319
rfemur -47.5994 -25.2779 26.6837
rtibia 83.0542
rfoot -14.1522 -6.66373
rtoes 6.63517
lfemur -35.6019 15.5485 -22.1509
ltibia 59.6435
lfoot -27.3538 14.3513
ltoes 12.8459
3233
root 1.12856 14.412 -1.45558 -720.455 44.696 -7.80435
lowerback 8.4764 2.46256 -5.09632
upperback -2.01198 3.09121 4.77239
thorax -7.46433 1.88789 7.52487
lowerneck -16.4455 -10.8863 -6.32283
upperneck 22.6551 -18.8142 19.4067
head 13.0414 -6.66675 5.17542
rclavicle -5.54112e-014 -2.62396e-014
rhumerus -14.8071 19.148 -84.3993
rradius 45.759
rwrist -65.868
rhand -46.4795 4.12075
rfingers 7.12502
rthumb -19.2068 -24.9508
lclavicle -5.54112e-014 -2.62396e-014
lhumerus -42.9066 -62.8439 86.0067
lradius 97.3361
lwrist 79.1108
lhand 26.5612 373.994
lfingers 7.12502
lthumb 50.5905 34.9006
rfemur -48.7263 -25.2922 27.0918
rtibia 82.0706
rfoot -14.5736 -7.3595
rtoes 6.61734
lfemur -35.329 15.3107 -21.9347
ltibia 59.4905
lfoot -27.4181 14.1697
ltoes 12.6132
3234
root 1.15136 14.431 -1.41253 -720.611 45.2414 -7.96269
lowerback 8.37179 2.50687 -4.97793
upperback -1.97941 3.14407 4.50634
thorax -7.35224 1.8939 7.15775
lowerneck -16.5082 -10.7337 -6.30522
upperneck 22.8502 -18.6789 19.5803
head 13.1378 -6.56486 5.27943
rclavicle 1.98039e-014 2.10712e-014
rhumerus -15.201 21.7484 -84.898
rradius 46.835
rwrist -67.4499
rhand -46.461 3.54389
rfingers 7.12502
rthumb -19.189 -25.5294
lclavicle 1.98039e-014 2.10712e-014
lhumerus -42.6652 -62.8138 85.749
lradius 97.3451
lwrist 79.1369
lhand 26.5237 374.077
lfingers 7.12502
lthumb 50.5563 35.0026
rfemur -49.7328 -25.3337 27.4584
rtibia 80.8704
rfoot -14.9537 -8.06528
rtoes 6.54175
lfemur -34.9875 15.0829 -21.7503
ltibia 59.2603
lfoot -27.4495 13.9874
ltoes 12.3407
3235
root 1.17477 14.4537 -1.36775 -720.76 45.8033 -8.07207
lowerback 8.28182 2.54914 -4.91271
upperback -1.93685 3.18739 4.23318
thorax -7.23885 1.89758 6.81702
lowerneck -16.5909 -10.581 -6.28703
upperneck 23.0535 -18.5453 19.7541
head 13.2426 -6.46165 5.38403
rclavicle 4.72114e-014 -4.57205e-015
rhumerus -15.6034 24.3946 -85.3434
rradius 47.989
rwrist -69.0027
rhand -46.4397 3.01715
rfingers 7.12502
rthumb -19.1686 -26.0582
lclavicle 4.72114e-014 -4.57205e-015
lhumerus -42.4277 -62.7782 85.4786
lradius 97.3687
lwrist 79.1921
lhand 26.4766 374.196
lfingers 7.12502
lthumb 50.5133 35.1452
rfemur -50.6014 -25.3933 27.7734
rtibia 79.4213
rfoot -15.2784 -8.73242
rtoes 6.41428
lfemur -34.5511 14.8657 -21.5987
ltibia 58.8869
lfoot -27.4063 13.8046
ltoes 12.0031
3236
root 1.19798 14.4793 -1.3214 -720.878 46.3834 -8.13539
lowerback 8.19447 2.5885 -4.90187
upperback -1.89713 3.22081 3.95292
thorax -7.13131 1.89936 6.50329
lowerneck -16.6804 -10.4271 -6.25886
upperneck 23.2578 -18.4103 19.92
head 13.3471 -6.35718 5.48518
rclavicle -1.91454e-014 6.16232e-015
rhumerus -16.0196 27.0549 -85.7431
rradius 49.2151
rwrist -70.5082
rhand -46.3956 2.52496
rfingers 7.12502
rthumb -19.1261 -26.5546
lclavicle -1.91454e-014 6.16232e-015
lhumerus -42.2112 -62.7399 85.2104
lradius 97.4006
lwrist 79.2578
lhand 26.4203 374.312
lfingers 7.12502
lthumb 50.4619 35.2883
rfemur -51.3638 -25.4503 28.0489
rtibia 77.7721
rfoot -15.5957 -9.34309
rtoes 6.26251
lfemur -34.081 14.6622 -21.48
ltibia 58.4473
lfoot -27.3195 13.6061
ltoes 11.6306
3237
root 1.22168 14.5079 -1.27375 -720.992 46.9669 -8.17176
lowerback 8.12098 2.62848 -4.91418
upperback -1.85788 3.25205 3.66372
thorax -7.03277 1.9015 6.19474
lowerneck -16.7681 -10.2727 -6.22729
upperneck 23.4588 -18.2753 20.0883
head 13.4503 -6.25236 5.58799
rclavicle -3.62285e-014 2.10712e-014
rhumerus -16.4483 29.6789 -86.1124
rradius 50.5054
rwrist -71.9593
rhand -46.3384 2.07434
rfingers 7.12502
rthumb -19.0711 -27.0107
lclavicle -3.62285e-014 2.10712e-014
lhumerus -42.0255 -62.7065 84.9437
lradius 97.4418
lwrist 79.3249
lhand 26.3756 374.42
lfingers 7.12502
lthumb 50.421 35.4192
rfemur -51.9898 -25.4885 28.2831
rtibia 75.9266
rfoot -15.9176 -9.88163
rtoes 6.03977
lfemur -33.5638 14.4748 -21.3754
ltibia 57.9522
lfoot -27.1999 13.4004
ltoes 11.2146
3238
root 1.24186 14.5377 -1.22452 -721.063 47.5776 -8.20325
lowerback 8.05147 2.66569 -4.97427
upperback -1.84541 3.27536 3.37431
thorax -6.96712 1.90387 5.91561
lowerneck -16.8486 -10.1212 -6.20075
upperneck 23.6479 -18.1438 20.2674
head 13.5503 -6.14939 5.69627
rclavicle 8.04901e-014 9.93923e-015
rhumerus -16.9061 32.2359 -86.4508
rradius 51.8768
rwrist -73.3635
rhand -46.2685 1.64866
rfingers 7.12502
rthumb -19.0039 -27.443
lclavicle 8.04901e-014 9.93923e-015
lhumerus -41.8601 -62.6937 84.6705
lradius 97.4902
lwrist 79.3932
lhand 26.3228 374.507
lfingers 7.12502
lthumb 50.3728 35.5318
rfemur -52.5551 -25.4808 28.5369
rtibia 73.901
rfoot -16.2458 -10.3954
rtoes 5.6767
lfemur -33.0916 14.3267 -21.2665
ltibia 57.425
lfoot -27.0191 13.1463
ltoes 10.7325
